HIERARCHY
ROOT Hips
{
	OFFSET 0.00000 0.00000 0.00000
	CHANNELS 6 Xposition Yposition Zposition Zrotation Yrotation Xrotation 
	JOINT LHipJoint
	{
		OFFSET 0 0 0
		CHANNELS 3 Zrotation Yrotation Xrotation
		JOINT LeftUpLeg
		{
			OFFSET 1.54859 -1.61379 0.86856
			CHANNELS 3 Zrotation Yrotation Xrotation
			JOINT LeftLeg
			{
				OFFSET 2.25087 -6.18423 0.00000
				CHANNELS 3 Zrotation Yrotation Xrotation
				JOINT LeftFoot
				{
					OFFSET 2.40328 -6.60297 0.00000
					CHANNELS 3 Zrotation Yrotation Xrotation
					JOINT LeftToeBase
					{
						OFFSET 0.17435 -0.47901 2.02453
						CHANNELS 3 Zrotation Yrotation Xrotation
						End Site
						{
							OFFSET 0.00000 -0.00000 1.04844
						}
					}
				}
			}
		}
	}
	JOINT RHipJoint
	{
		OFFSET 0 0 0
		CHANNELS 3 Zrotation Yrotation Xrotation
		JOINT RightUpLeg
		{
			OFFSET -1.54669 -1.61379 0.86856
			CHANNELS 3 Zrotation Yrotation Xrotation
			JOINT RightLeg
			{
				OFFSET -2.28132 -6.26789 0.00000
				CHANNELS 3 Zrotation Yrotation Xrotation
				JOINT RightFoot
				{
					OFFSET -2.51636 -6.91365 0.00000
					CHANNELS 3 Zrotation Yrotation Xrotation
					JOINT RightToeBase
					{
						OFFSET -0.15124 -0.41552 2.21090
						CHANNELS 3 Zrotation Yrotation Xrotation
						End Site
						{
							OFFSET -0.00000 -0.00000 1.13399
						}
					}
				}
			}
		}
	}
	JOINT LowerBack
	{
		OFFSET 0 0 0
		CHANNELS 3 Zrotation Yrotation Xrotation
		JOINT Spine
		{
			OFFSET -0.04287 2.26161 -0.25690
			CHANNELS 3 Zrotation Yrotation Xrotation
			JOINT Spine1
			{
				OFFSET 0.02248 2.28395 -0.10140
				CHANNELS 3 Zrotation Yrotation Xrotation
				JOINT Neck
				{
					OFFSET 0 0 0
					CHANNELS 3 Zrotation Yrotation Xrotation
					JOINT Neck1
					{
						OFFSET -0.11644 1.38496 0.11345
						CHANNELS 3 Zrotation Yrotation Xrotation
						JOINT Head
						{
							OFFSET 0.29383 1.36600 0.06642
							CHANNELS 3 Zrotation Yrotation Xrotation
							End Site
							{
								OFFSET 0.11075 1.41395 -0.00294
							}
						}
					}
				}
				JOINT LeftShoulder
				{
					OFFSET 0 0 0
					CHANNELS 3 Zrotation Yrotation Xrotation
					JOINT LeftArm
					{
						OFFSET 3.51628 0.59542 -0.30346
						CHANNELS 3 Zrotation Yrotation Xrotation
						JOINT LeftForeArm
						{
							OFFSET 4.76405 -0.00000 0.00000
							CHANNELS 3 Zrotation Yrotation Xrotation
							JOINT LeftHand
							{
								OFFSET 3.13759 -0.00000 -0.00000
								CHANNELS 3 Zrotation Yrotation Xrotation
								JOINT LeftFingerBase
								{
									OFFSET 0 0 0
									CHANNELS 3 Zrotation Yrotation Xrotation
									JOINT LeftHandIndex1
									{
										OFFSET 0.73226 -0.00000 -0.00000
										CHANNELS 3 Zrotation Yrotation Xrotation
										End Site
										{
											OFFSET 0.59037 -0.00000 -0.00000
										}
									}
								}
								JOINT LThumb
								{
									OFFSET 0 0 0
									CHANNELS 3 Zrotation Yrotation Xrotation
									End Site
									{
										OFFSET 0.59938 -0.00000 0.59938
									}
								}
							}
						}
					}
				}
				JOINT RightShoulder
				{
					OFFSET 0 0 0
					CHANNELS 3 Zrotation Yrotation Xrotation
					JOINT RightArm
					{
						OFFSET -3.30990 0.84213 -0.36430
						CHANNELS 3 Zrotation Yrotation Xrotation
						JOINT RightForeArm
						{
							OFFSET -5.10161 -0.00000 -0.00000
							CHANNELS 3 Zrotation Yrotation Xrotation
							JOINT RightHand
							{
								OFFSET -3.23267 -0.00000 -0.00000
								CHANNELS 3 Zrotation Yrotation Xrotation
								JOINT RightFingerBase
								{
									OFFSET 0 0 0
									CHANNELS 3 Zrotation Yrotation Xrotation
									JOINT RightHandIndex1
									{
										OFFSET -0.70200 -0.00000 -0.00000
										CHANNELS 3 Zrotation Yrotation Xrotation
										End Site
										{
											OFFSET -0.56597 -0.00000 -0.00000
										}
									}
								}
								JOINT RThumb
								{
									OFFSET 0 0 0
									CHANNELS 3 Zrotation Yrotation Xrotation
									End Site
									{
										OFFSET -0.57461 -0.00000 0.57461
									}
								}
							}
						}
					}
				}
			}
		}
	}
}
MOTION
Frames: 6
Frame Time: 0.0526316
0.00 0.00 0.00 0 0 0 0 0 0 -21 0 0 0 0 0 0 0 0 0 0 0 0 0 0 21 0 0 0 0 0 0 0 0 0 0 0 0 0 0 0 0 0 0 0 0 0 0 -16 0 0 21 0 0 11 0 0 0 -8 0 0 0 0 0 0 0 0 0 0 0 0 0 0 0 0 0 0 0 0 8 0 0 0 0 0 0 0 0 0 0 0 0 0 0 0 0 0
0.00 0.00 0.00 -135.7230 81.1998 -128.9750 0.0000 0.0000 0.0000 -37.4258 9.1878 13.4929 5.0980 13.4933 41.2443 0.4099 14.2498 14.2417 0.0298 1.1140 3.0626 0.0000 0.0000 0.0000 11.2639 19.8357 -51.1102 -7.2138 -15.5093 49.6784 -0.1507 8.6582 -8.6308 -5.5284 13.9552 -43.0583 -12.0878 -0.0329 16.8292 5.3492 -1.1981 7.5372 13.0717 -0.8074 -0.7340 -10.1240 4.0735 -10.2769 10.5690 8.2932 -15.2623 4.8873 4.7296 -3.7080 0.0000 -0.0000 0.0000 -66.9545 11.4265 52.5436 81.1077 -59.6991 -52.3068 -0.0000 0.0000 -25.6846 34.4517 18.3477 12.1861 -7.1250 0.0000 -0.0000 6.5270 51.7738 1.0926 0.0000 -0.0000 0.0000 92.9550 10.1659 33.1382 -98.1492 59.7476 -67.0514 0.0000 -0.0000 -14.4362 -20.9146 22.4463 -8.3016 7.1250 -0.0000 -0.0000 5.0080 -6.1989 4.4554
0.00 0.00 0.00 -119.7200 80.1277 -114.7550 0.0000 0.0000 0.0000 -33.5731 13.5345 4.6229 11.1188 17.9927 63.1667 -0.2097 12.8417 5.9586 0.0035 -0.3798 -1.0436 0.0000 0.0000 0.0000 16.1274 14.8138 -43.7236 -7.1645 -15.4688 49.4936 0.0023 10.9881 -7.6706 -5.3280 13.7439 -42.2213 -8.1322 -0.0787 17.0882 5.5994 -0.6031 8.1038 10.8541 -0.4149 -0.5974 -9.0843 5.0863 -9.9275 9.5170 9.3648 -14.6580 4.3455 5.2066 -3.6179 -0.0000 0.0000 0.0000 -76.2536 20.1277 54.2276 62.4930 -56.9385 -36.4231 -0.0000 0.0000 -22.4460 37.8583 22.4467 16.5306 -7.1250 0.0000 -0.0000 10.1255 57.3132 3.0750 -0.0000 0.0000 0.0000 92.5898 10.3363 34.9290 -102.7660 59.3752 -71.0325 0.0000 -0.0000 -10.0523 -21.2736 22.3218 -8.4119 7.1250 -0.0000 -0.0000 4.7716 -6.2709 4.2369
0.00 0.00 0.00 -118.6080 78.0863 -113.6830 0.0000 0.0000 0.0000 -28.9837 14.4790 -3.7891 16.9902 19.7814 81.1690 -0.1134 5.9771 -1.7038 0.0164 -0.8265 -2.2715 0.0000 0.0000 0.0000 16.9449 12.4134 -38.0491 -7.5946 -15.8128 51.0891 -0.4346 13.3549 -14.0672 -4.8794 13.2467 -40.2992 -4.5967 -0.5920 16.4296 5.4536 -0.7174 8.2819 8.5761 -0.3791 -0.1722 -8.3242 5.3991 -10.4890 8.8039 9.6646 -14.2270 4.0188 5.3553 -3.3689 0.0000 -0.0000 0.0000 -82.9622 25.5206 54.8494 43.8449 -50.1899 -21.3477 -0.0000 0.0000 -19.5291 38.2233 22.5366 16.7969 -7.1250 0.0000 -0.0000 10.5611 57.5103 3.2596 0.0000 -0.0000 0.0000 92.8584 11.0659 33.9170 -107.8286 58.7642 -75.3760 0.0000 -0.0000 -7.3356 -21.6454 22.1869 -8.5229 7.1250 -0.0000 -0.0000 4.5257 -6.3517 4.0101
0.00 0.00 0.00 -125.1480 74.3482 -119.8310 0.0000 0.0000 0.0000 -22.2947 13.6243 -18.0986 23.9653 19.6188 101.6649 0.0877 2.0068 -6.7127 1.0449 6.5005 18.2439 0.0000 0.0000 0.0000 20.0581 4.7768 -32.3939 -8.6416 -16.5715 54.8423 -1.6456 10.9123 -23.1163 -4.1060 12.3001 -36.8021 -0.4661 -0.5351 15.6428 5.0140 -0.0456 8.5680 5.5656 0.1067 0.3465 -8.6106 4.3248 -11.5661 9.2357 8.4457 -14.3432 4.2626 4.8259 -3.1473 -0.0000 0.0000 0.0000 -88.1967 29.4416 57.7466 24.2509 -35.4285 -7.8515 -0.0000 0.0000 -14.6667 32.3963 24.8935 14.9543 -7.1250 0.0000 -0.0000 3.3078 58.7416 1.1120 -0.0000 0.0000 0.0000 92.3646 12.5546 31.3309 -110.0764 58.4209 -77.2945 0.0000 0.0000 2.9352 -22.3657 22.0720 -8.7894 7.1250 -0.0000 -0.0000 4.0621 -6.3536 3.5969
0.00 0.00 0.00 -136.3180 69.6782 -130.0010 0.0000 0.0000 0.0000 -14.4550 6.8155 -47.9865 27.2510 18.6897 111.6558 0.3739 0.7230 -11.8354 0.0807 -1.8326 -5.0433 0.0000 0.0000 0.0000 19.6071 -7.1369 -6.7629 -4.6587 -12.9888 39.3266 -2.1805 9.4323 -26.5252 -5.3169 13.7320 -42.1744 -0.5200 2.9884 13.2279 2.6963 4.4478 8.1337 2.5557 2.3733 0.8955 -9.7290 -1.2340 -10.2116 14.0259 1.1024 -12.8696 5.9625 1.0964 -2.1667 0.0000 0.0000 0.0000 -84.0136 46.7464 52.3210 22.2805 -33.2926 -6.7392 -0.0000 0.0000 -18.2722 28.4326 25.9532 13.3305 -7.1250 0.0000 -0.0000 -1.6115 58.9364 -0.5490 0.0000 0.0000 0.0000 89.0684 14.0919 19.4418 -104.0542 59.2403 -72.1402 0.0000 0.0000 19.1475 -23.3748 22.1544 -9.2573 7.1250 -0.0000 -0.0000 3.4363 -6.0955 3.0576
